<svg xmlns="http://www.w3.org/2000/svg" viewBox="0 0 167.6 39.99"><defs><style>.cls-1,.cls-2{fill:#282828;}.cls-1{fill-rule:evenodd;}</style></defs><title>资源 1</title><g id="图层_2" data-name="图层 2"><g id="图层_1-2" data-name="图层 1"><path class="cls-1" d="M34.48,6.13l.21,1.27A25.22,25.22,0,0,1,34.92,11a32.77,32.77,0,0,1-1,7.83,29.32,29.32,0,0,1-4.37,9.74A30.42,30.42,0,0,1,18.87,38l-.61.33L17.65,38a30.34,30.34,0,0,1-10.73-9.4,29.32,29.32,0,0,1-4.37-9.74A32.77,32.77,0,0,1,1.6,11,23.83,23.83,0,0,1,1.83,7.4L2,6.13a.81.81,0,0,0,0-.31.84.84,0,0,0-.13-.29.87.87,0,0,0-.22-.21.64.64,0,0,0-.3-.11.65.65,0,0,0-.31,0,.72.72,0,0,0-.28.13.8.8,0,0,0-.22.23,1,1,0,0,0-.11.29L.25,7.14A25.89,25.89,0,0,0,0,11,34.5,34.5,0,0,0,1,19.2,30.89,30.89,0,0,0,5.61,29.47,31.91,31.91,0,0,0,16.9,39.36l1,.53a.69.69,0,0,0,.37.1.7.7,0,0,0,.38-.1l1-.53a31.91,31.91,0,0,0,11.29-9.89A31,31,0,0,0,35.53,19.2a34.49,34.49,0,0,0,1-8.22,24.69,24.69,0,0,0-.25-3.84l-.21-1.27A.79.79,0,0,0,36,5.58a.66.66,0,0,0-.21-.23.79.79,0,0,0-.28-.13.86.86,0,0,0-.32,0,.79.79,0,0,0-.29.11.93.93,0,0,0-.23.21,1.08,1.08,0,0,0-.13.29.81.81,0,0,0,0,.31Z"/><path class="cls-1" d="M6.4,5.26,18.26,1.64l12.13,3.7a.8.8,0,0,0,1-.53.8.8,0,0,0-.06-.61.79.79,0,0,0-.47-.39L18.49,0A.9.9,0,0,0,18,0L5.93,3.73a.87.87,0,0,0-.27.14.69.69,0,0,0-.2.25.75.75,0,0,0-.09.3.66.66,0,0,0,0,.31A.87.87,0,0,0,5.54,5a.82.82,0,0,0,.25.2.75.75,0,0,0,.3.09.82.82,0,0,0,.31,0Z"/><path class="cls-1" d="M.54,6.36l17,33.19a.74.74,0,0,0,.29.32.93.93,0,0,0,.41.12.73.73,0,0,0,.41-.12.75.75,0,0,0,.3-.31L29.33,20.17l0,0L36,6.34a.8.8,0,0,0-.37-1.06.8.8,0,0,0-1.07.36L27.92,19.43l-9.64,18L2,5.63a.63.63,0,0,0-.19-.24.74.74,0,0,0-.27-.16,1.1,1.1,0,0,0-.31,0,.75.75,0,0,0-.3.09.79.79,0,0,0-.25.19.76.76,0,0,0-.15.28.83.83,0,0,0,0,.31.75.75,0,0,0,.09.3Z"/><path class="cls-1" d="M8.68,21.14H27.59a.81.81,0,0,0,.57-.23.81.81,0,0,0,0-1.13.81.81,0,0,0-.57-.23H8.68a.8.8,0,1,0,0,1.59Zm52.74-6.88H49.12a.76.76,0,0,0-.56.24.8.8,0,0,0-.24.56v9.87a.82.82,0,0,0,.8.81h12.3v1.67H49.12a2.53,2.53,0,0,1-.94-.18,2.61,2.61,0,0,1-.81-.54,2.54,2.54,0,0,1-.53-.8,2.36,2.36,0,0,1-.18-.95V15.07a2.36,2.36,0,0,1,.18-1,2.54,2.54,0,0,1,.53-.8,2.42,2.42,0,0,1,.81-.53,2.36,2.36,0,0,1,.94-.19h12.3v1.66Zm23.1-1.67v1.67H72.68v4.89H82.2v1.69H72.67v4.89H84.52v1.68H71V12.59Z"/><path class="cls-2" d="M108.92,15.08v4.34a2.44,2.44,0,0,1-1.52,2.28,2.41,2.41,0,0,1-1,.19h-2.26l4.65,5.51h-2.21L102,21.89H96.57a7,7,0,0,1-.8-.08V27.4H94.1V12.61h12.34a2.36,2.36,0,0,1,.94.19,2.42,2.42,0,0,1,.81.53,2.54,2.54,0,0,1,.53.8,2.64,2.64,0,0,1,.19.95ZM96.58,20.2h9.87a.79.79,0,0,0,.3-.05A.9.9,0,0,0,107,20a.71.71,0,0,0,.16-.26.77.77,0,0,0,.06-.3V15.08a1,1,0,0,0,0-.3.78.78,0,0,0-.17-.26.77.77,0,0,0-.56-.24H96.57a.79.79,0,0,0-.56.23.82.82,0,0,0-.24.57v4.34a.81.81,0,0,0,.06.31A.72.72,0,0,0,96,20a.78.78,0,0,0,.26.17.65.65,0,0,0,.31.05Z"/><path class="cls-1" d="M117.76,12.59h14.81v1.67H126V27.41h-1.68V14.26h-6.58ZM141.54,27.4V12.59h1.67V27.4Zm23.9-14.81h2.14L161.39,20l6.21,7.4h-2.16l-5.51-6.56h-4.77V27.4h-1.69V12.59h1.69v6.56h4.77Z"/></g></g></svg>