<?xml version="1.0" encoding="UTF-8"?>
<svg id="_图层_2" data-name="图层 2" xmlns="http://www.w3.org/2000/svg" xmlns:xlink="http://www.w3.org/1999/xlink" viewBox="0 0 464.58 186.96">
  <defs>
    <style>
      .cls-1, .cls-2 {
        fill: #000;
      }

      .cls-3 {
        fill: url(#_未命名的渐变_35);
      }

      .cls-4 {
        fill: url(#_未命名的渐变_34);
      }

      .cls-2 {
        opacity: .8;
      }
    </style>
    <linearGradient id="_未命名的渐变_35" data-name="未命名的渐变 35" x1="189.92" y1="86.85" x2="3.39" y2="99.68" gradientUnits="userSpaceOnUse">
      <stop offset="0" stop-color="#c843ff"/>
      <stop offset="1" stop-color="#441cc6"/>
    </linearGradient>
    <linearGradient id="_未命名的渐变_34" data-name="未命名的渐变 34" x1="126.69" y1="167.07" x2="82.14" y2="22.87" gradientUnits="userSpaceOnUse">
      <stop offset="0" stop-color="#c843ff"/>
      <stop offset="1" stop-color="#561cb9"/>
    </linearGradient>
  </defs>
  <g id="_图层_1-2" data-name="图层 1">
    <g>
      <g>
        <path class="cls-1" d="M105.29,166c-4.58-4.23-6.87-10.41-6.87-18.54s2.23-14.37,6.69-18.57c4.46-4.2,10.83-6.31,19.1-6.31,3.6,0,6.84,.36,9.74,1.09,2.9,.72,5.33,1.74,7.29,3.05,.51,.33,.77,.75,.77,1.26,0,.33-.17,.82-.49,1.47l-3.01,5.12c-.28,.61-.66,.91-1.12,.91-.28,0-.75-.16-1.4-.49-2.8-1.54-6.1-2.31-9.88-2.31-4.34,0-7.7,1.25-10.06,3.75-2.36,2.5-3.54,6.18-3.54,11.04s1.26,8.55,3.79,11.07c2.52,2.52,5.96,3.78,10.3,3.78,3.83,0,7.22-.77,10.16-2.31,.65-.33,1.12-.49,1.4-.49,.42,0,.79,.28,1.12,.84l3.15,5.4c.28,.47,.42,.89,.42,1.26,0,.42-.28,.84-.84,1.26-3.92,2.71-9.72,4.06-17.38,4.06-8.32,0-14.76-2.11-19.34-6.34Z"/>
        <path class="cls-1" d="M146.49,170.45c-.56-.56-.84-1.45-.84-2.66v-27.96c0-.84,.15-1.41,.46-1.72,.3-.3,.95-.46,1.93-.46h7.22c.56,0,.99,.08,1.3,.25,.3,.16,.48,.46,.53,.88l.35,2.03c2.8-2.8,6.19-4.2,10.16-4.2,1.54,0,2.8,.13,3.78,.39,.98,.26,1.87,.67,2.66,1.23,.47,.33,.7,.7,.7,1.12,0,.14-.05,.4-.14,.77l-2.24,6.38c-.19,.65-.54,.98-1.05,.98-.23,0-.51-.09-.84-.28-1.26-.7-2.78-1.05-4.56-1.05s-3.24,.49-4.38,1.47c-1.15,.98-1.72,2.29-1.72,3.92v16.26c0,1.22-.27,2.1-.81,2.66-.54,.56-1.48,.84-2.84,.84h-6.8c-1.36,0-2.31-.28-2.87-.84Z"/>
        <path class="cls-1" d="M181.88,167.55c-3.55-3.2-5.33-7.56-5.33-13.07s1.77-9.87,5.33-13.07c3.55-3.2,8.53-4.8,14.93-4.8s11.39,1.6,14.96,4.8c3.57,3.2,5.36,7.56,5.36,13.07s-1.79,9.87-5.36,13.07c-3.57,3.2-8.56,4.8-14.96,4.8s-11.38-1.6-14.93-4.8Zm21.09-13.07c0-5.14-2.06-7.71-6.17-7.71s-6.17,2.57-6.17,7.71c0,2.62,.54,4.58,1.61,5.89,1.07,1.31,2.59,1.96,4.56,1.96,4.11,0,6.17-2.62,6.17-7.85Z"/>
        <path class="cls-1" d="M219.93,168.7c-.89-.56-1.33-1.05-1.33-1.47,0-.23,.12-.58,.35-1.05l2.94-5.26c.28-.56,.63-.84,1.05-.84,.28,0,.68,.14,1.19,.42,1.31,.7,2.98,1.34,5.01,1.93,2.03,.58,3.84,.88,5.43,.88,1.5,0,2.57-.15,3.22-.46,.65-.3,.98-.81,.98-1.51,0-.65-.46-1.2-1.37-1.65-.91-.44-2.56-1.02-4.94-1.72l-1.54-.42c-3.88-1.17-6.68-2.5-8.41-3.99-1.73-1.49-2.59-3.62-2.59-6.38,0-3.41,1.47-6.03,4.42-7.85,2.94-1.82,6.89-2.73,11.84-2.73,3.08,0,5.77,.28,8.06,.84,2.29,.56,4.48,1.4,6.59,2.52,.84,.47,1.26,.98,1.26,1.54,0,.33-.14,.75-.42,1.26l-2.87,4.56c-.33,.51-.65,.77-.98,.77-.28,0-.66-.14-1.12-.42-1.12-.61-2.43-1.1-3.92-1.47-1.5-.37-2.94-.56-4.34-.56-3.22,0-4.84,.7-4.84,2.1,0,.65,.53,1.2,1.58,1.65,1.05,.44,2.67,.92,4.87,1.44,.51,.14,1.23,.33,2.14,.56,.91,.23,1.67,.47,2.28,.7,2.24,.79,3.97,1.6,5.19,2.42,1.21,.82,2.08,1.78,2.59,2.87,.51,1.1,.77,2.49,.77,4.17,0,2.01-.61,3.82-1.82,5.43s-3.08,2.91-5.61,3.89c-2.52,.98-5.63,1.47-9.32,1.47-6.59,0-12.03-1.21-16.33-3.64Z"/>
        <path class="cls-1" d="M255.81,168.7c-.89-.56-1.33-1.05-1.33-1.47,0-.23,.12-.58,.35-1.05l2.94-5.26c.28-.56,.63-.84,1.05-.84,.28,0,.68,.14,1.19,.42,1.31,.7,2.98,1.34,5.01,1.93,2.03,.58,3.84,.88,5.43,.88,1.49,0,2.57-.15,3.22-.46,.65-.3,.98-.81,.98-1.51,0-.65-.46-1.2-1.37-1.65-.91-.44-2.56-1.02-4.94-1.72l-1.54-.42c-3.88-1.17-6.68-2.5-8.41-3.99-1.73-1.49-2.59-3.62-2.59-6.38,0-3.41,1.47-6.03,4.41-7.85,2.94-1.82,6.89-2.73,11.84-2.73,3.08,0,5.77,.28,8.06,.84,2.29,.56,4.49,1.4,6.59,2.52,.84,.47,1.26,.98,1.26,1.54,0,.33-.14,.75-.42,1.26l-2.87,4.56c-.33,.51-.66,.77-.98,.77-.28,0-.65-.14-1.12-.42-1.12-.61-2.43-1.1-3.92-1.47-1.5-.37-2.94-.56-4.35-.56-3.22,0-4.83,.7-4.83,2.1,0,.65,.53,1.2,1.58,1.65,1.05,.44,2.67,.92,4.87,1.44,.51,.14,1.23,.33,2.14,.56,.91,.23,1.67,.47,2.28,.7,2.24,.79,3.97,1.6,5.19,2.42,1.21,.82,2.08,1.78,2.59,2.87,.51,1.1,.77,2.49,.77,4.17,0,2.01-.61,3.82-1.82,5.43-1.22,1.61-3.08,2.91-5.61,3.89-2.52,.98-5.63,1.47-9.32,1.47-6.59,0-12.03-1.21-16.33-3.64Z"/>
        <path class="cls-1" d="M301.78,171.12c-3.5-.82-6.33-1.97-8.48-3.47-.79-.51-1.19-1.05-1.19-1.61,0-.37,.14-.77,.42-1.19l3.43-5.47c.37-.56,.75-.84,1.12-.84,.23,0,.63,.16,1.19,.49,1.73,.98,3.69,1.78,5.89,2.38,2.2,.61,4.37,.91,6.52,.91s3.82-.33,4.87-.98c1.05-.65,1.58-1.71,1.58-3.15s-.57-2.5-1.72-3.29c-1.15-.79-3.28-1.8-6.41-3.01-4.72-1.77-8.4-3.77-11.04-5.99-2.64-2.22-3.96-5.24-3.96-9.08,0-4.63,1.66-8.15,4.98-10.58,3.32-2.43,7.73-3.64,13.25-3.64,3.83,0,7.11,.34,9.85,1.02,2.73,.68,5.06,1.72,6.97,3.12,.79,.61,1.19,1.17,1.19,1.68,0,.33-.14,.7-.42,1.12l-3.43,5.47c-.42,.56-.79,.84-1.12,.84-.23,0-.63-.16-1.19-.49-2.71-1.77-5.93-2.66-9.67-2.66-2.01,0-3.55,.33-4.62,.98-1.08,.65-1.61,1.73-1.61,3.22,0,1.03,.28,1.87,.84,2.52,.56,.65,1.32,1.23,2.28,1.72,.96,.49,2.44,1.11,4.45,1.86l1.33,.49c3.46,1.36,6.18,2.65,8.16,3.89,1.98,1.24,3.49,2.76,4.52,4.55,1.03,1.8,1.54,4.05,1.54,6.76,0,4.16-1.55,7.48-4.66,9.95-3.11,2.48-7.67,3.71-13.7,3.71-3.92,0-7.64-.41-11.14-1.23Z"/>
        <path class="cls-1" d="M341.38,170.94c-.37-.23-.65-.7-.84-1.4l-9.04-30.27c-.09-.28-.14-.49-.14-.63,0-.65,.47-.98,1.4-.98h9.25c.61,0,1.05,.1,1.33,.32,.28,.21,.47,.55,.56,1.02l3.78,15.91,4.76-12.82c.23-.56,.48-.95,.74-1.16,.26-.21,.71-.32,1.37-.32h4.42c.65,0,1.11,.1,1.37,.32,.26,.21,.5,.6,.74,1.16l4.7,12.82,3.85-15.91c.14-.47,.33-.81,.56-1.02,.23-.21,.65-.32,1.26-.32h9.32c.93,0,1.4,.33,1.4,.98,0,.14-.05,.35-.14,.63l-9.11,30.27c-.19,.7-.46,1.17-.81,1.4-.35,.23-.88,.35-1.58,.35h-6.87c-.65,0-1.15-.13-1.47-.39-.33-.26-.61-.71-.84-1.37l-4.62-12.68-4.62,12.68c-.19,.65-.46,1.11-.81,1.37-.35,.26-.85,.39-1.51,.39h-6.8c-.7,0-1.24-.12-1.61-.35Z"/>
        <path class="cls-1" d="M384.79,168.11c-2.64-2.83-3.96-6.81-3.96-11.95,0-3.92,.9-7.36,2.7-10.3,1.8-2.94,4.34-5.22,7.64-6.83s7.09-2.42,11.39-2.42c3.55,0,6.69,.39,9.43,1.16,2.73,.77,5.24,1.88,7.53,3.33v28.03c0,.89-.16,1.47-.49,1.75-.33,.28-.98,.42-1.96,.42h-7.15c-.51,0-.91-.08-1.19-.25-.28-.16-.51-.43-.7-.81l-.91-2.1c-1.36,1.45-2.98,2.51-4.87,3.19-1.89,.68-4.19,1.02-6.9,1.02-4.39,0-7.91-1.41-10.55-4.24Zm20.08-6.62c1.03-.89,1.54-2.15,1.54-3.78v-10.93c-.89-.42-2.01-.63-3.36-.63-2.48,0-4.45,.87-5.92,2.59-1.47,1.73-2.21,4.16-2.21,7.29,0,4.53,1.89,6.8,5.68,6.8,1.82,0,3.25-.44,4.28-1.33Z"/>
        <path class="cls-1" d="M426.35,184.61c-.54-.56-.81-1.45-.81-2.66v-40.15c2.1-1.49,4.74-2.73,7.92-3.71,3.18-.98,6.49-1.47,9.95-1.47,14.11,0,21.16,5.98,21.16,17.94,0,5.42-1.5,9.74-4.49,12.96-2.99,3.22-7.22,4.84-12.68,4.84-1.54,0-3.03-.19-4.45-.56-1.43-.37-2.61-.89-3.54-1.54v11.7c0,1.21-.28,2.1-.84,2.66s-1.52,.84-2.87,.84h-6.52c-1.36,0-2.3-.28-2.84-.84Zm22.57-24c1-1.52,1.51-3.56,1.51-6.13,0-3.04-.6-5.17-1.79-6.41-1.19-1.24-3.03-1.86-5.5-1.86-1.59,0-2.85,.21-3.78,.63v11.14c0,1.59,.44,2.8,1.33,3.64s2.13,1.26,3.71,1.26c2.01,0,3.52-.76,4.52-2.28Z"/>
      </g>
      <g>
        <path class="cls-3" d="M178.87,131.56c.42-2.82,.63-5.71,.63-8.64,0-32.9-26.67-59.57-59.58-59.57s-59.57,26.67-59.57,59.57,26.67,59.58,59.57,59.58c.77,0,1.54-.01,2.31-.05-9.05,2.93-18.72,4.51-28.75,4.51C41.85,186.96,0,145.11,0,93.48S41.85,0,93.48,0s93.48,41.85,93.48,93.48c0,13.57-2.89,26.45-8.09,38.08Z"/>
        <path class="cls-4" d="M179.99,128.93c1.81-6.51,2.79-13.38,2.79-20.48,0-41.64-33.22-75.4-74.21-75.4S34.37,66.81,34.37,108.45s33.22,75.4,74.21,75.4c4.41,0,8.72-.42,12.91-1.17,.22-.07,.44-.13,.66-.2-.58,.02-1.16,.04-1.74,.04-.15,0-.3-.01-.46-.01-.01,0-.03,0-.04,0-32.9,0-59.57-26.67-59.57-59.58s26.67-59.57,59.57-59.57,58.03,25.15,59.51,56.74c.06,1.1,.1,2.2,.1,3.32,0,2.67-.18,5.3-.53,7.88,.34-.78,.68-1.56,1-2.35Z"/>
        <path class="cls-2" d="M68.34,152.71c-.09,3.39,2.45,11.71,7.53,21.46,0,0-9.32-2.54-23.44-16.66,0,0,5.65,15.53,16.94,23.86,0,0-9.04-1.27-20.61-5.93,0,0,.08,.1,.24,.28,13.23,7.17,28.37,11.24,44.47,11.24,10.03,0,19.7-1.58,28.75-4.51-.77,.04-1.54,.05-2.31,.05-22.04,0-41.28-11.98-51.58-29.79Z"/>
      </g>
    </g>
  </g>
</svg>