<svg xmlns="http://www.w3.org/2000/svg" viewBox="0 0 29 29"><defs><style>.cls-1{fill:#7fb3a8;}</style></defs><title>跳转_1</title><g id="图层_2" data-name="图层 2"><g id="图层_1-2" data-name="图层 1"><path class="cls-1" d="M27.5,16.33a1.5,1.5,0,0,0-1.5,1.5V25.5a.5.5,0,0,1-.5.5H3.5a.5.5,0,0,1-.5-.5V3.5A.5.5,0,0,1,3.5,3h7.68a1.5,1.5,0,0,0,0-3H3.5A3.5,3.5,0,0,0,0,3.5v22A3.5,3.5,0,0,0,3.5,29h22A3.5,3.5,0,0,0,29,25.5V17.83A1.5,1.5,0,0,0,27.5,16.33Z"/><path class="cls-1" d="M27,0H20.38a1.5,1.5,0,0,0,0,3h3.5L13.09,13.79a1.49,1.49,0,0,0,0,2.12,1.5,1.5,0,0,0,2.12,0L26,5.12v3.5a1.5,1.5,0,0,0,3,0V2A2,2,0,0,0,27,0Z"/></g></g></svg>