<svg xmlns="http://www.w3.org/2000/svg" viewBox="0 0 465.51 136.71"><defs><style>.cls-1{fill:#2ac98b;}.cls-1,.cls-2{fill-rule:evenodd;}.cls-2,.cls-3{fill:#222226;}.cls-3{font-size:40.14px;font-family:Lato-Black, Lato;font-weight:800;letter-spacing:-0.01em;}.cls-4{letter-spacing:-0.01em;}.cls-5{letter-spacing:0em;}</style></defs><title>资源 257</title><g id="图层_2" data-name="图层 2"><g id="图层_1-2" data-name="图层 1"><polygon class="cls-1" points="0 38.39 0 102.07 18.44 112.69 18.44 67.15 36.81 77.76 36.81 123.28 55.25 133.9 55.25 70.23 0 38.39"/><path class="cls-1" d="M41.88,32.57,60.35,21.74,83.3,35.17,64.84,46ZM60.37,0,4.68,32.58,64.73,67.79l0,68.92L83,126.1V56.38l18.4-10.77v69.66l18.49-10.88V34.8Z"/><polygon class="cls-2" points="200.98 84.08 200.63 84.13 166.33 30.72 150.06 30.72 150.06 109.99 166.33 109.99 166.33 56.58 166.68 56.53 200.98 109.99 217.26 109.99 217.26 30.72 200.98 30.72 200.98 84.08"/><path class="cls-2" d="M410.26,76.57c0-15.74-12.44-28.61-27.64-28.61h-1.57c-15.21,0-27.65,12.87-27.65,28.61v4.81c0,15.73,12.44,28.61,27.65,28.61h1.57c15.2,0,27.64-12.88,27.64-28.61Zm-27.9,16.21a11.76,11.76,0,0,1-12-11.49l-.14-3.69a11.57,11.57,0,1,1,23.11-.94l.14,3.69A11.85,11.85,0,0,1,382.36,92.78Z"/><path class="cls-2" d="M263.71,50.09A26.5,26.5,0,0,0,253.3,48h-1.57c-15.21,0-27.65,12.87-27.65,28.61v4.81c0,15.73,12.44,28.61,27.65,28.61h1.57a26.51,26.51,0,0,0,10.41-2.14V110h17.23V48H263.71ZM253,92.76a11.76,11.76,0,0,1-12-11.48l-.14-3.68A11.84,11.84,0,0,1,252,65.18a11.67,11.67,0,0,1,11.72,9.39V84A11.67,11.67,0,0,1,253,92.76Z"/><path class="cls-2" d="M321.33,48h-1.57A26.55,26.55,0,0,0,309,50.24V30.72H291.73V110H309V107.7A26.55,26.55,0,0,0,319.76,110h1.57C336.54,110,349,97.11,349,81.38V76.57C349,60.83,336.54,48,321.33,48ZM332,81.28a11.53,11.53,0,0,1-23,.45V79.52l.1-2.86a11.56,11.56,0,1,1,23.09.94Z"/><polygon class="cls-2" points="464.51 47.95 447.58 47.95 436.08 65.83 424.58 47.95 407.65 47.95 427.62 78.97 407.65 109.99 424.58 109.99 436.08 92.12 447.58 109.99 464.51 109.99 444.55 78.97 464.51 47.95"/><text class="cls-3" transform="translate(381.36 38.69)">B<tspan class="cls-4" x="26.59" y="0">e</tspan><tspan class="cls-5" x="47.97" y="0">ta</tspan></text></g></g></svg>