<svg xmlns="http://www.w3.org/2000/svg" viewBox="0 0 416.52 125.69"><defs><style>.cls-1{fill:#1f2126;}.cls-2{fill:#2ac98b;}</style></defs><title>资源 260</title><g id="图层_2" data-name="图层 2"><g id="图层_1-2" data-name="图层 1"><path class="cls-1" d="M177.31,43.71a3.88,3.88,0,0,1-1,1.15,2.22,2.22,0,0,1-1.36.39,3.37,3.37,0,0,1-1.59-.47l-1.92-1a15.69,15.69,0,0,0-2.46-1,9.84,9.84,0,0,0-3.15-.47,6.76,6.76,0,0,0-4.54,1.3A4.44,4.44,0,0,0,159.79,47a3.24,3.24,0,0,0,.9,2.35,7.7,7.7,0,0,0,2.36,1.6,25.91,25.91,0,0,0,3.34,1.24c1.25.37,2.53.79,3.83,1.25a33.94,33.94,0,0,1,3.84,1.62,12.78,12.78,0,0,1,3.34,2.38A11.09,11.09,0,0,1,179.75,61a12.47,12.47,0,0,1,.9,5,16.29,16.29,0,0,1-1.12,6.07A14.25,14.25,0,0,1,176.27,77,15.13,15.13,0,0,1,171,80.28a19.78,19.78,0,0,1-7.11,1.2,22.78,22.78,0,0,1-4.45-.45,27.44,27.44,0,0,1-4.38-1.26,25.78,25.78,0,0,1-4-2,17,17,0,0,1-3.24-2.5l3.21-5.07a3.45,3.45,0,0,1,1-.92,2.7,2.7,0,0,1,1.37-.36,3.62,3.62,0,0,1,1.94.61l2.21,1.34a17.05,17.05,0,0,0,2.84,1.35,10.61,10.61,0,0,0,3.79.61,7.19,7.19,0,0,0,4.59-1.3,5,5,0,0,0,1.64-4.12,3.92,3.92,0,0,0-.9-2.67,7.06,7.06,0,0,0-2.36-1.7,22.37,22.37,0,0,0-3.32-1.19c-1.24-.34-2.52-.72-3.82-1.13a29.32,29.32,0,0,1-3.82-1.54,12.12,12.12,0,0,1-3.32-2.41,11.23,11.23,0,0,1-2.36-3.73,14.72,14.72,0,0,1-.9-5.5,13,13,0,0,1,1.06-5.13A13.22,13.22,0,0,1,153.82,38a15.37,15.37,0,0,1,5-3.12,18.43,18.43,0,0,1,6.84-1.18,26.23,26.23,0,0,1,4.19.34,22.51,22.51,0,0,1,3.86,1,20.53,20.53,0,0,1,3.42,1.57A15.59,15.59,0,0,1,180,38.67Z"/><path class="cls-1" d="M233.93,47.69,223.59,81h-8.08a1.63,1.63,0,0,1-1.1-.39,2.53,2.53,0,0,1-.7-1.28L209,62.71q-.36-1.12-.63-2.22c-.18-.72-.35-1.46-.49-2.21-.15.75-.32,1.5-.5,2.24s-.39,1.5-.63,2.25L201.9,79.3A2.05,2.05,0,0,1,199.78,81h-7.7L181.74,47.69h8a3.06,3.06,0,0,1,1.78.49,2.48,2.48,0,0,1,1,1.24l3.34,14.92c.28,1.14.52,2.23.74,3.29s.4,2.13.58,3.2c.27-1.07.57-2.14.88-3.2s.65-2.15,1-3.29l4.17-15a2.47,2.47,0,0,1,1-1.24,2.79,2.79,0,0,1,1.66-.5h4.43a3.06,3.06,0,0,1,1.78.5,2.44,2.44,0,0,1,1,1.24l4,15c.32,1.14.64,2.24,1,3.31s.59,2.15.85,3.24c.17-1.07.37-2.14.61-3.21s.5-2.18.8-3.34l3.53-14.92a2.51,2.51,0,0,1,1-1.24,2.8,2.8,0,0,1,1.66-.49Z"/><path class="cls-1" d="M236.24,52.31a20.22,20.22,0,0,1,6.69-4,23.64,23.64,0,0,1,7.88-1.3,14.48,14.48,0,0,1,5.44,1,11.54,11.54,0,0,1,6.69,6.89,14.9,14.9,0,0,1,.9,5.26V81h-4.56a4.59,4.59,0,0,1-2.13-.39A2.91,2.91,0,0,1,256,79l-.71-1.83c-.84.71-1.64,1.33-2.41,1.86a14.24,14.24,0,0,1-2.39,1.36,11.38,11.38,0,0,1-2.63.84,16.34,16.34,0,0,1-3.1.27,13.75,13.75,0,0,1-4.14-.59,8.73,8.73,0,0,1-3.16-1.75,7.79,7.79,0,0,1-2-2.87,10.42,10.42,0,0,1-.7-4,8.28,8.28,0,0,1,.9-3.64,9,9,0,0,1,3.11-3.37,19.66,19.66,0,0,1,6-2.55,40,40,0,0,1,9.47-1.16V60.17A6.08,6.08,0,0,0,252.94,56a4.4,4.4,0,0,0-3.41-1.3,9,9,0,0,0-2.89.39,12.52,12.52,0,0,0-2,.86q-.88.48-1.71.87a4.68,4.68,0,0,1-2,.38,2.89,2.89,0,0,1-1.74-.51A4.44,4.44,0,0,1,238,55.42Zm17.91,15.11a33,33,0,0,0-4.91.52,12.22,12.22,0,0,0-3.05,1,3.76,3.76,0,0,0-1.56,1.32,3.07,3.07,0,0,0-.43,1.6,2.78,2.78,0,0,0,.93,2.39,4.54,4.54,0,0,0,2.73.69,7.89,7.89,0,0,0,3.37-.67,10.49,10.49,0,0,0,2.92-2.18Z"/><path class="cls-1" d="M279.53,51.79A17.3,17.3,0,0,1,284,48.38,12.35,12.35,0,0,1,289.9,47a10.23,10.23,0,0,1,4.81,1.16,11,11,0,0,1,3.82,3.34,16.75,16.75,0,0,1,2.52,5.34,25.84,25.84,0,0,1,.92,7.18,22.28,22.28,0,0,1-1,6.93A17.32,17.32,0,0,1,298,76.51a13.53,13.53,0,0,1-4.49,3.66,12.77,12.77,0,0,1-5.79,1.31,11.21,11.21,0,0,1-4.37-.74,11.88,11.88,0,0,1-3.21-2V91.53h-9.95V47.69h6.17a2.34,2.34,0,0,1,2.44,1.67Zm.61,20.13a6.66,6.66,0,0,0,2.44,1.73,7.59,7.59,0,0,0,2.76.51,5.93,5.93,0,0,0,2.54-.54,5.1,5.1,0,0,0,2-1.75,9.25,9.25,0,0,0,1.34-3.13,19.58,19.58,0,0,0,.48-4.68,21.21,21.21,0,0,0-.39-4.43,9,9,0,0,0-1.07-2.91,4.12,4.12,0,0,0-1.66-1.59,4.72,4.72,0,0,0-2.15-.48,7.25,7.25,0,0,0-3.59.8,10.17,10.17,0,0,0-2.7,2.35Z"/><path class="cls-1" d="M324.53,34.21a32.69,32.69,0,0,1,8.25.9,15.69,15.69,0,0,1,5.55,2.53,9.62,9.62,0,0,1,3.13,4,13.5,13.5,0,0,1,1,5.23,10.31,10.31,0,0,1-.45,3,8.72,8.72,0,0,1-1.41,2.72,11.07,11.07,0,0,1-2.47,2.33,15.39,15.39,0,0,1-3.63,1.83,12.9,12.9,0,0,1,6.83,3.63,9.41,9.41,0,0,1,2.22,6.48,13.21,13.21,0,0,1-1.16,5.55A12.66,12.66,0,0,1,339,76.91a16,16,0,0,1-5.51,3A23.79,23.79,0,0,1,326,81H307.33V34.21Zm-6.35,8.12V53.88h5.64a17.91,17.91,0,0,0,3.25-.26,6.82,6.82,0,0,0,2.45-.89A4.15,4.15,0,0,0,331.06,51a6.66,6.66,0,0,0,.53-2.82,7.9,7.9,0,0,0-.42-2.78,3.88,3.88,0,0,0-1.28-1.78,5.35,5.35,0,0,0-2.2-1,14.6,14.6,0,0,0-3.16-.29Zm7.63,30.45a9.68,9.68,0,0,0,3.52-.54,5.55,5.55,0,0,0,2.13-1.41,4.64,4.64,0,0,0,1.06-2,8.78,8.78,0,0,0,.29-2.22,7.28,7.28,0,0,0-.34-2.31,3.83,3.83,0,0,0-1.15-1.73,5.74,5.74,0,0,0-2.17-1.09,12.46,12.46,0,0,0-3.4-.39h-7.57V72.78Z"/><path class="cls-1" d="M364,47.17a19.29,19.29,0,0,1,6.9,1.19,14.89,14.89,0,0,1,8.81,8.78A19.5,19.5,0,0,1,381,64.25a19.82,19.82,0,0,1-1.23,7.17,15,15,0,0,1-8.81,8.86,19.08,19.08,0,0,1-6.9,1.2,19.27,19.27,0,0,1-7-1.2,15.41,15.41,0,0,1-5.39-3.44,15.05,15.05,0,0,1-3.5-5.42A19.82,19.82,0,0,1,347,64.25a19.49,19.49,0,0,1,1.24-7.11,15.06,15.06,0,0,1,3.5-5.38,15.47,15.47,0,0,1,5.39-3.4A19.49,19.49,0,0,1,364,47.17Zm0,26.93a5.65,5.65,0,0,0,5-2.42c1.08-1.62,1.62-4.07,1.62-7.37s-.54-5.74-1.62-7.35a5.66,5.66,0,0,0-5-2.4,5.82,5.82,0,0,0-5.17,2.4q-1.64,2.41-1.64,7.35c0,3.3.55,5.75,1.64,7.37A5.81,5.81,0,0,0,364,74.1Z"/><path class="cls-1" d="M416.29,81h-9.57a2.7,2.7,0,0,1-1.71-.51A4.06,4.06,0,0,1,404,79.24L398,69a7.85,7.85,0,0,1-.39,1,9.51,9.51,0,0,1-.48.9l-4.88,8.28a6.9,6.9,0,0,1-1.06,1.18,2.23,2.23,0,0,1-1.57.55h-8.86L392,63.77,381.24,47.69h9.57a3.39,3.39,0,0,1,1.55.27,2.41,2.41,0,0,1,.88.91l5.94,9.86a8.1,8.1,0,0,1,.48-1.14c.2-.38.41-.76.65-1.14L404.54,49a3.2,3.2,0,0,1,.95-1,2.17,2.17,0,0,1,1.23-.32h9.12L405.12,63.32Z"/><path class="cls-2" d="M44.11,94h0l1.44-.83-1.68-1-7-4L24.41,81V56.57l-8,4.63h0L8,66.06H8L0,70.67V89.06a10.45,10.45,0,0,0,5.22,9l15.92,9.2,1-.57h0ZM8,89.06V75.3l8.41-4.86V85.61l13.14,7.58-8.4,4.86L9.22,91.16A2.44,2.44,0,0,1,8,89.06Z"/><path class="cls-1" d="M106.45,27.6,61,1.39a10.48,10.48,0,0,0-10.42,0L3.12,28.82A6.24,6.24,0,0,0,0,34.22V58.81L8,54.2H8l15.08-8.71h0L55.85,26.56,87.27,44.7V81L60.69,96.33h0l-4.87,2.81h0l-2.38,1.37L38.64,109h0l-7.23,4.17,19.2,11.09a10.54,10.54,0,0,0,5.21,1.38,10.66,10.66,0,0,0,5.22-1.38l45.4-26.22a10.49,10.49,0,0,0,5.21-9V36.64A10.5,10.5,0,0,0,106.45,27.6Zm-2.79,61.46a2.45,2.45,0,0,1-1.21,2.1l-45.4,26.21a2.4,2.4,0,0,1-2.43,0l-7.2-4.16,8.39-4.85,0,0L95.27,85.61V40.08L55.84,17.32l-32.76,19v0L8,45V36.64a2.42,2.42,0,0,1,1.22-2.1L54.61,8.32a2.55,2.55,0,0,1,2.44,0l45.4,26.21a2.48,2.48,0,0,1,1.21,2.11Z"/><path class="cls-2" d="M47.26,82.32l4.79,2.76,3.78,2.19L77,75.05V50.63L55.83,38.42,34.68,50.67V75.05l8.84,5.11ZM42.68,64.86V55.28l13.16-7.62L69,55.25V70.44L55.83,78,51.27,75.4l-3.75-2.17-4.84-2.8Z"/><path class="cls-2" d="M360.63,12.78a16.87,16.87,0,0,1,4.2.45,8.19,8.19,0,0,1,2.82,1.29,5,5,0,0,1,1.6,2,6.85,6.85,0,0,1,.49,2.66,5,5,0,0,1-.23,1.54,4.47,4.47,0,0,1-.71,1.39,5.73,5.73,0,0,1-1.26,1.18,7.79,7.79,0,0,1-1.85.93,6.57,6.57,0,0,1,3.48,1.85,4.81,4.81,0,0,1,1.13,3.3,6.82,6.82,0,0,1-.59,2.82A6.55,6.55,0,0,1,368,34.5a8.26,8.26,0,0,1-2.8,1.52,12.34,12.34,0,0,1-3.81.54h-9.5V12.78Zm-3.23,4.13v5.87h2.87a9.2,9.2,0,0,0,1.65-.13,3.42,3.42,0,0,0,1.25-.45,2.16,2.16,0,0,0,.79-.9,3.37,3.37,0,0,0,.26-1.44,4.07,4.07,0,0,0-.21-1.41,2,2,0,0,0-.65-.91,2.74,2.74,0,0,0-1.12-.49,8.31,8.31,0,0,0-1.61-.14Zm3.89,15.49a4.75,4.75,0,0,0,1.78-.28,2.67,2.67,0,0,0,1.09-.72,2.4,2.4,0,0,0,.54-1,4.32,4.32,0,0,0,.14-1.13,3.56,3.56,0,0,0-.17-1.17,2,2,0,0,0-.58-.89,2.89,2.89,0,0,0-1.11-.55,6.37,6.37,0,0,0-1.73-.2H357.4V32.4Z"/><path class="cls-2" d="M377.09,29a4.74,4.74,0,0,0,1.29,3.08,3.82,3.82,0,0,0,2.69,1,4.56,4.56,0,0,0,1.52-.22,8.17,8.17,0,0,0,1.14-.47l.91-.47a1.92,1.92,0,0,1,.87-.21,1,1,0,0,1,.92.44l1.47,1.81a7.63,7.63,0,0,1-1.69,1.46,9.24,9.24,0,0,1-1.86.88,10.31,10.31,0,0,1-1.91.44,14.74,14.74,0,0,1-1.82.12,9.42,9.42,0,0,1-3.34-.58,7.63,7.63,0,0,1-2.73-1.72,8.07,8.07,0,0,1-1.84-2.84,10.64,10.64,0,0,1-.68-3.95,8.92,8.92,0,0,1,.58-3.22A7.77,7.77,0,0,1,376.9,20a8.62,8.62,0,0,1,3.49-.67,8.92,8.92,0,0,1,3.08.52,6.78,6.78,0,0,1,2.4,1.52,6.91,6.91,0,0,1,1.56,2.44,8.92,8.92,0,0,1,.57,3.28,7.63,7.63,0,0,1-.05.93,1.53,1.53,0,0,1-.18.57.7.7,0,0,1-.35.29,1.57,1.57,0,0,1-.57.08Zm6.37-2.93a4.2,4.2,0,0,0-.16-1.18,2.86,2.86,0,0,0-.5-1,2.63,2.63,0,0,0-.93-.73,3.2,3.2,0,0,0-1.38-.27,3,3,0,0,0-2.26.82,4.29,4.29,0,0,0-1.07,2.38Z"/><path class="cls-2" d="M396.37,36.82a5.88,5.88,0,0,1-2.13-.35,4.21,4.21,0,0,1-1.55-1,4.27,4.27,0,0,1-1-1.56,6.24,6.24,0,0,1-.32-2V23.13H390a.93.93,0,0,1-1-1v-2l2.7-.53,1-4.13a1,1,0,0,1,1.11-.78h2.65v5h4.2v3.46h-4.2v8.4a1.54,1.54,0,0,0,.29,1,1,1,0,0,0,.82.38,1.51,1.51,0,0,0,.46-.06,1.75,1.75,0,0,0,.33-.13l.26-.13a.65.65,0,0,1,.29-.06.62.62,0,0,1,.37.11,1.29,1.29,0,0,1,.28.34l1.54,2.39a7.17,7.17,0,0,1-2.21,1.11A8.89,8.89,0,0,1,396.37,36.82Z"/><path class="cls-2" d="M402.48,22a10.33,10.33,0,0,1,3.4-2,12,12,0,0,1,4-.66,7.39,7.39,0,0,1,2.77.49,6.12,6.12,0,0,1,2.09,1.39,6.06,6.06,0,0,1,1.31,2.12,7.45,7.45,0,0,1,.46,2.67V36.56H414.2a2.42,2.42,0,0,1-1.09-.19,1.57,1.57,0,0,1-.61-.82l-.36-.93c-.42.36-.83.67-1.22,1a7.77,7.77,0,0,1-1.22.69,6.36,6.36,0,0,1-1.34.43,8.45,8.45,0,0,1-1.57.13,6.94,6.94,0,0,1-2.11-.3,4.41,4.41,0,0,1-1.61-.89,3.93,3.93,0,0,1-1-1.46,5.24,5.24,0,0,1-.36-2,4.31,4.31,0,0,1,.46-1.85,4.59,4.59,0,0,1,1.58-1.71,10.19,10.19,0,0,1,3-1.3,20.68,20.68,0,0,1,4.82-.59V26a3.13,3.13,0,0,0-.61-2.14,2.26,2.26,0,0,0-1.74-.66,4.64,4.64,0,0,0-1.47.19,6.94,6.94,0,0,0-1,.44c-.3.17-.59.31-.88.44a2.39,2.39,0,0,1-1,.2,1.48,1.48,0,0,1-.88-.26,2.31,2.31,0,0,1-.59-.62Zm9.11,7.69a17.85,17.85,0,0,0-2.5.26,6.3,6.3,0,0,0-1.55.49,1.86,1.86,0,0,0-.79.67,1.58,1.58,0,0,0-.22.82,1.42,1.42,0,0,0,.47,1.22,2.35,2.35,0,0,0,1.39.35,4,4,0,0,0,1.71-.35A4.92,4.92,0,0,0,411.59,32Z"/></g></g></svg>