<svg xmlns="http://www.w3.org/2000/svg" viewBox="0 0 416.29 125.69"><defs><style>.cls-1{fill:#1f2126;}.cls-2{fill:#2ac98b;}</style></defs><title>资源 257</title><g id="图层_2" data-name="图层 2"><g id="图层_1-2" data-name="图层 1"><path class="cls-1" d="M177.31,43.94a4.07,4.07,0,0,1-1,1.16,2.28,2.28,0,0,1-1.36.38,3.35,3.35,0,0,1-1.59-.46L171.43,44a16.7,16.7,0,0,0-2.46-1,9.84,9.84,0,0,0-3.15-.47,6.81,6.81,0,0,0-4.54,1.3,4.45,4.45,0,0,0-1.49,3.52,3.23,3.23,0,0,0,.9,2.34,7.71,7.71,0,0,0,2.36,1.61,26,26,0,0,0,3.34,1.23c1.25.38,2.53.79,3.83,1.25a33.94,33.94,0,0,1,3.84,1.62,13,13,0,0,1,3.34,2.38,11.09,11.09,0,0,1,2.35,3.51,12.5,12.5,0,0,1,.9,5,16.25,16.25,0,0,1-1.12,6.07,14.39,14.39,0,0,1-3.26,4.93,15.11,15.11,0,0,1-5.26,3.3,19.77,19.77,0,0,1-7.11,1.21,22.78,22.78,0,0,1-4.45-.45A27.47,27.47,0,0,1,155.07,80a25.74,25.74,0,0,1-4-1.94,17,17,0,0,1-3.24-2.51l3.21-5.07a3.28,3.28,0,0,1,1-.91,2.61,2.61,0,0,1,1.37-.37,3.62,3.62,0,0,1,1.94.61l2.21,1.35a17.89,17.89,0,0,0,2.84,1.34,10.61,10.61,0,0,0,3.79.61,7.19,7.19,0,0,0,4.59-1.3,4.94,4.94,0,0,0,1.64-4.12,3.88,3.88,0,0,0-.9-2.66,6.8,6.8,0,0,0-2.36-1.7,21.29,21.29,0,0,0-3.32-1.19c-1.24-.34-2.52-.72-3.82-1.14a28,28,0,0,1-3.82-1.54,11.92,11.92,0,0,1-3.32-2.41,11.19,11.19,0,0,1-2.36-3.72,14.78,14.78,0,0,1-.9-5.51,13.27,13.27,0,0,1,4.17-9.59,15.22,15.22,0,0,1,5-3.13,18.64,18.64,0,0,1,6.84-1.17,26.23,26.23,0,0,1,4.19.33,22.51,22.51,0,0,1,3.86,1,21.37,21.37,0,0,1,3.42,1.57A15.59,15.59,0,0,1,180,38.9Z"/><path class="cls-1" d="M233.93,47.92,223.59,81.2h-8.08a1.67,1.67,0,0,1-1.1-.38,2.61,2.61,0,0,1-.7-1.29L209,62.94c-.24-.75-.45-1.49-.63-2.21s-.35-1.47-.49-2.22c-.15.75-.32,1.5-.5,2.25s-.39,1.5-.63,2.24L201.9,79.53a2,2,0,0,1-2.12,1.67h-7.7L181.74,47.92h8a3.06,3.06,0,0,1,1.78.5,2.42,2.42,0,0,1,1,1.23l3.34,14.93c.28,1.13.52,2.23.74,3.29s.4,2.12.58,3.19c.27-1.07.57-2.13.88-3.19s.65-2.16,1-3.29l4.17-15a2.45,2.45,0,0,1,1-1.23,2.72,2.72,0,0,1,1.66-.5h4.43a3,3,0,0,1,1.78.5,2.42,2.42,0,0,1,1,1.23l4,15c.32,1.13.64,2.23,1,3.3s.59,2.15.85,3.24c.17-1.07.37-2.14.61-3.21s.5-2.18.8-3.33l3.53-14.93a2.45,2.45,0,0,1,1-1.23,2.81,2.81,0,0,1,1.66-.5Z"/><path class="cls-1" d="M236.24,52.54a20.19,20.19,0,0,1,6.69-4,23.39,23.39,0,0,1,7.88-1.3,14.29,14.29,0,0,1,5.44,1A11.76,11.76,0,0,1,260.36,51a12.07,12.07,0,0,1,2.58,4.16,14.94,14.94,0,0,1,.9,5.26V81.2h-4.56a4.74,4.74,0,0,1-2.13-.38,2.94,2.94,0,0,1-1.2-1.61l-.71-1.83c-.84.71-1.64,1.33-2.41,1.86a15,15,0,0,1-2.39,1.37,11.87,11.87,0,0,1-2.63.83,16.3,16.3,0,0,1-3.1.28,13.44,13.44,0,0,1-4.14-.6,8.59,8.59,0,0,1-3.16-1.75,7.79,7.79,0,0,1-2-2.87,10.37,10.37,0,0,1-.7-4,8.29,8.29,0,0,1,.9-3.65,9,9,0,0,1,3.11-3.37,20.17,20.17,0,0,1,6-2.55,40,40,0,0,1,9.47-1.15V60.4a6.08,6.08,0,0,0-1.21-4.22,4.44,4.44,0,0,0-3.41-1.3,9,9,0,0,0-2.89.39,12.52,12.52,0,0,0-2,.87c-.59.32-1.16.61-1.71.86a4.68,4.68,0,0,1-2,.39,2.83,2.83,0,0,1-1.74-.52A4.31,4.31,0,0,1,238,55.65Zm17.91,15.12a31.88,31.88,0,0,0-4.91.51,12.22,12.22,0,0,0-3.05,1,3.76,3.76,0,0,0-1.56,1.32,3.1,3.1,0,0,0-.43,1.6,2.8,2.8,0,0,0,.93,2.4,4.54,4.54,0,0,0,2.73.69,7.89,7.89,0,0,0,3.37-.68,10.3,10.3,0,0,0,2.92-2.18Z"/><path class="cls-1" d="M279.53,52A17.33,17.33,0,0,1,284,48.61a12.35,12.35,0,0,1,5.92-1.33,10.22,10.22,0,0,1,4.81,1.15,11.12,11.12,0,0,1,3.82,3.34,17,17,0,0,1,2.52,5.34,25.84,25.84,0,0,1,.92,7.18,22.28,22.28,0,0,1-1,6.93A17.32,17.32,0,0,1,298,76.74a13.53,13.53,0,0,1-4.49,3.66,12.64,12.64,0,0,1-5.79,1.32,11.39,11.39,0,0,1-4.37-.74,12.39,12.39,0,0,1-3.21-2V91.76h-9.95V47.92h6.17a2.35,2.35,0,0,1,2.44,1.67Zm.61,20.12a6.66,6.66,0,0,0,2.44,1.73,7.4,7.4,0,0,0,2.76.52,5.79,5.79,0,0,0,2.54-.55,5,5,0,0,0,2-1.75A9.17,9.17,0,0,0,291.22,69a19.58,19.58,0,0,0,.48-4.68,21.28,21.28,0,0,0-.39-4.43A9,9,0,0,0,290.24,57a4.16,4.16,0,0,0-1.66-1.58,4.6,4.6,0,0,0-2.15-.49,7.14,7.14,0,0,0-3.59.81,9.94,9.94,0,0,0-2.7,2.34Z"/><path class="cls-1" d="M324.53,34.44a32.69,32.69,0,0,1,8.25.9,15.69,15.69,0,0,1,5.55,2.53,9.69,9.69,0,0,1,3.13,4,13.55,13.55,0,0,1,1,5.24,10.29,10.29,0,0,1-.45,3,8.88,8.88,0,0,1-1.41,2.73,11,11,0,0,1-2.47,2.32A15.39,15.39,0,0,1,334.48,57a12.9,12.9,0,0,1,6.83,3.63,9.41,9.41,0,0,1,2.22,6.48,13.21,13.21,0,0,1-1.16,5.55A12.57,12.57,0,0,1,339,77.14a16,16,0,0,1-5.51,3A24.09,24.09,0,0,1,326,81.2H307.33V34.44Zm-6.35,8.12V54.11h5.64a18.91,18.91,0,0,0,3.25-.25,6.65,6.65,0,0,0,2.45-.9,4.15,4.15,0,0,0,1.54-1.77,6.66,6.66,0,0,0,.53-2.82,7.94,7.94,0,0,0-.42-2.78,3.88,3.88,0,0,0-1.28-1.78,5.35,5.35,0,0,0-2.2-1,15.26,15.26,0,0,0-3.16-.29ZM325.81,73a9.45,9.45,0,0,0,3.52-.55,5.44,5.44,0,0,0,2.13-1.41,4.64,4.64,0,0,0,1.06-2,8.71,8.71,0,0,0,.29-2.21,7.19,7.19,0,0,0-.34-2.31,3.81,3.81,0,0,0-1.15-1.74,5.74,5.74,0,0,0-2.17-1.09,12.91,12.91,0,0,0-3.4-.38h-7.57V73Z"/><path class="cls-1" d="M364,47.41a19.29,19.29,0,0,1,6.9,1.18,15,15,0,0,1,8.81,8.78A19.5,19.5,0,0,1,381,64.48a19.82,19.82,0,0,1-1.23,7.17,15.39,15.39,0,0,1-3.47,5.43,15.23,15.23,0,0,1-5.34,3.43,19.08,19.08,0,0,1-6.9,1.21,19.27,19.27,0,0,1-7-1.21,15.54,15.54,0,0,1-5.39-3.43,15.18,15.18,0,0,1-3.5-5.43A19.82,19.82,0,0,1,347,64.48a19.49,19.49,0,0,1,1.24-7.11A14.93,14.93,0,0,1,351.7,52a15.49,15.49,0,0,1,5.39-3.41A19.49,19.49,0,0,1,364,47.41Zm0,26.92a5.63,5.63,0,0,0,5-2.42c1.08-1.62,1.62-4.07,1.62-7.37s-.54-5.74-1.62-7.34a5.64,5.64,0,0,0-5-2.41,5.8,5.8,0,0,0-5.17,2.41q-1.64,2.4-1.64,7.34c0,3.3.55,5.75,1.64,7.37A5.79,5.79,0,0,0,364,74.33Z"/><path class="cls-1" d="M416.29,81.2h-9.57a2.7,2.7,0,0,1-1.71-.51A3.94,3.94,0,0,1,404,79.47L398,69.26a7.34,7.34,0,0,1-.39,1,9.51,9.51,0,0,1-.48.9l-4.88,8.28a7,7,0,0,1-1.06,1.19,2.27,2.27,0,0,1-1.57.54h-8.86L392,64,381.24,47.92h9.57a3.39,3.39,0,0,1,1.55.27,2.37,2.37,0,0,1,.88.92L399.18,59a9.23,9.23,0,0,1,.48-1.14c.2-.37.41-.75.65-1.14l4.23-7.41a3.43,3.43,0,0,1,.95-1,2.25,2.25,0,0,1,1.23-.32h9.12L405.12,63.55Z"/><path class="cls-2" d="M44.11,94h0l1.44-.83-1.68-1-7-4L24.41,81V56.57l-8,4.63h0L8,66.06H8L0,70.67V89.06a10.45,10.45,0,0,0,5.22,9l15.92,9.2,1-.57h0ZM8,89.06V75.3l8.41-4.86V85.61l13.14,7.58-8.4,4.86L9.22,91.16A2.44,2.44,0,0,1,8,89.06Z"/><path class="cls-1" d="M106.45,27.6,61,1.39a10.48,10.48,0,0,0-10.42,0L3.12,28.82A6.24,6.24,0,0,0,0,34.22V58.81L8,54.2H8l15.08-8.71h0L55.85,26.56,87.27,44.7V81L60.69,96.33h0l-4.87,2.81h0l-2.38,1.37L38.64,109h0l-7.23,4.17,19.2,11.09a10.54,10.54,0,0,0,5.21,1.38,10.66,10.66,0,0,0,5.22-1.38l45.4-26.22a10.49,10.49,0,0,0,5.21-9V36.64A10.5,10.5,0,0,0,106.45,27.6Zm-2.79,61.46a2.45,2.45,0,0,1-1.21,2.1l-45.4,26.21a2.4,2.4,0,0,1-2.43,0l-7.2-4.16,8.39-4.85,0,0L95.27,85.61V40.08L55.84,17.32l-32.76,19v0L8,45V36.64a2.42,2.42,0,0,1,1.22-2.1L54.61,8.32a2.55,2.55,0,0,1,2.44,0l45.4,26.21a2.48,2.48,0,0,1,1.21,2.11Z"/><path class="cls-2" d="M47.26,82.32l4.79,2.76,3.78,2.19L77,75.05V50.63L55.83,38.42,34.68,50.67V75.05l8.84,5.11ZM42.68,64.86V55.28l13.16-7.62L69,55.25V70.44L55.83,78,51.27,75.4l-3.75-2.17-4.84-2.8Z"/></g></g></svg>