<svg width="32" height="32" viewBox="0 0 16 16" fill="none" xmlns="http://www.w3.org/2000/svg">
    <path d="M12.9 10.1C13.5523 10.1 13.8785 10.1 14.1358 9.99343C14.4788 9.85134 14.7513 9.5788 14.8934 9.23576C15 8.97848 15 8.65232 15 8V3.24C15 2.45593 15 2.06389 14.8474 1.76441C14.7132 1.50099 14.499 1.28681 14.2356 1.15259C13.9361 1 13.5441 1 12.76 1H8C7.34768 1 7.02152 1 6.76424 1.10657C6.4212 1.24866 6.14866 1.5212 6.00657 1.86424C5.9 2.12152 5.9 2.44768 5.9 3.1M7.86 15H3.24C2.45593 15 2.06389 15 1.76441 14.8474C1.50099 14.7132 1.28681 14.499 1.15259 14.2356C1 13.9361 1 13.5441 1 12.76V8.14C1 7.35593 1 6.96389 1.15259 6.66441C1.28681 6.40099 1.50099 6.18681 1.76441 6.05259C2.06389 5.9 2.45593 5.9 3.24 5.9H7.86C8.64407 5.9 9.03611 5.9 9.33559 6.05259C9.59901 6.18681 9.81319 6.40099 9.94741 6.66441C10.1 6.96389 10.1 7.35593 10.1 8.14V12.76C10.1 13.5441 10.1 13.9361 9.94741 14.2356C9.81319 14.499 9.59901 14.7132 9.33559 14.8474C9.03611 15 8.64407 15 7.86 15Z" stroke="#616262" stroke-width="1.2" stroke-linecap="round" stroke-linejoin="round"/>
</svg>
