<svg xmlns="http://www.w3.org/2000/svg" width="16" height="15" viewBox="0 0 16 15" fill="none">
    <path d="M14.7416 1.9994C15.0845 1.65647 15.0845 1.10047 14.7416 0.757533C14.3987 0.414599 13.8427 0.414599 13.4997 0.757533L1.25842 12.9988C0.915486 13.3418 0.915485 13.8978 1.25842 14.2407C1.60135 14.5837 2.15736 14.5836 2.50029 14.2407L14.7416 1.9994Z" fill="#333333"/>
    <path d="M13.4956 14.2416C13.8385 14.5845 14.3945 14.5845 14.7374 14.2416C15.0804 13.8987 15.0804 13.3427 14.7374 12.9997L2.49612 0.75842C2.15319 0.415486 1.59718 0.415485 1.25425 0.758419C0.911314 1.10135 0.911315 1.65736 1.25425 2.00029L13.4956 14.2416Z" fill="#333333"/>
</svg>
