<svg xmlns="http://www.w3.org/2000/svg" width="52" height="52" viewBox="0 0 26 26" fill="none">
    <circle cx="13" cy="13" r="13" fill="#E5E5EE"/>
    <path d="M16.5912 6.32023C17.4525 7.07383 17.8831 8.10672 17.8831 9.41992C17.8831 10.4965 17.6028 11.3791 17.0869 12.0677C16.8929 12.283 16.2693 12.8639 15.2354 13.7678C14.8474 14.0908 14.5681 14.4564 14.3741 14.8444C14.1588 15.275 14.0512 15.727 14.0512 16.2439V16.5455H11.5761V16.2439C11.5761 15.4263 11.7051 14.7154 12.0067 14.1345C12.286 13.5535 13.1259 12.6496 14.5245 11.4004L14.7824 11.0988C15.1694 10.6255 15.3634 10.1085 15.3634 9.57023C15.3634 8.86031 15.148 8.3007 14.7611 7.89141C14.3518 7.48211 13.7709 7.28914 13.0386 7.28914C12.091 7.28914 11.4248 7.56844 11.0155 8.17172C10.6498 8.66734 10.4772 9.37727 10.4772 10.2812H8.02344C8.02344 8.68867 8.47539 7.43945 9.42195 6.53555C10.3472 5.63164 11.5964 5.17969 13.1889 5.17969C14.5884 5.17969 15.729 5.54531 16.5902 6.32023H16.5912ZM14.0085 18.0507C14.3102 18.3523 14.4818 18.7393 14.4818 19.2126C14.4818 19.6859 14.3102 20.0952 13.9872 20.3968C13.6642 20.6984 13.2763 20.8488 12.803 20.8488C12.3297 20.8488 11.9417 20.6761 11.6187 20.3755C11.2958 20.0738 11.1455 19.6869 11.1455 19.2126C11.1455 18.7383 11.2958 18.3513 11.6187 18.0507C11.9417 17.7491 12.3297 17.5988 12.803 17.5988C13.2763 17.5988 13.6855 17.7501 14.0085 18.0507Z" fill="white"/>
</svg>
